<svg width="290" height="290" viewBox="0 0 290 290" fill="none" xmlns="http://www.w3.org/2000/svg">
<g opacity="0.91" clip-path="url(#clip0_2_65)">
<path d="M132.225 277.152C132.225 270.067 137.97 264.304 145.073 264.304C152.158 264.304 157.922 270.049 157.922 277.134C157.922 284.237 152.177 290 145.092 290C137.989 290 132.225 284.255 132.225 277.152ZM72.5734 270.636C66.4247 267.094 64.3323 259.238 67.8747 253.089C71.4171 246.941 79.2728 244.848 85.4215 248.391C91.5703 251.933 93.681 259.789 90.1202 265.937C87.7525 270.067 83.4392 272.361 78.9975 272.361C76.8133 272.361 74.5924 271.811 72.5734 270.636ZM200.008 265.882C196.447 259.734 198.54 251.878 204.689 248.317C210.819 244.775 218.693 246.867 222.254 252.998C225.796 259.146 223.704 267.002 217.555 270.563C215.536 271.737 213.315 272.288 211.131 272.288C206.708 272.288 202.394 269.994 200.008 265.882ZM19.4741 217.629C15.9133 211.498 18.0057 203.642 24.1544 200.082C30.2848 196.521 38.1405 198.613 41.7196 204.744C45.262 210.874 43.1696 218.748 37.0392 222.309C35.0203 223.484 32.7994 224.034 30.6152 224.034C26.1734 224.034 21.8601 221.74 19.4741 217.629ZM253.053 222.18C246.904 218.638 244.793 210.782 248.354 204.634C251.915 198.485 259.77 196.392 265.901 199.953C272.049 203.496 274.16 211.351 270.599 217.5C268.213 221.611 263.9 223.906 259.458 223.906C257.274 223.906 255.072 223.355 253.053 222.18ZM0 145.165C0 138.08 5.74494 132.317 12.8297 132.299C19.9329 132.299 25.6962 138.044 25.6962 145.147C25.6962 152.232 19.9513 157.995 12.8665 157.995C5.76329 158.013 0 152.268 0 145.165ZM264.304 145C264.304 144.908 264.304 144.816 264.304 144.725C264.285 137.622 270.03 131.858 277.115 131.84C284.218 131.84 289.982 137.566 290 144.67C290 144.725 290 144.78 290 144.853C290 144.89 290 144.945 290 145C290 152.085 284.255 157.848 277.152 157.848C270.067 157.848 264.304 152.103 264.304 145ZM24.0259 90.1937C17.8772 86.6513 15.7665 78.7956 19.3089 72.6469C22.8696 66.4981 30.7253 64.3874 36.8741 67.9298C43.0044 71.4905 45.1152 79.3462 41.5728 85.4766C39.1867 89.6064 34.8734 91.919 30.4316 91.919C28.2475 91.919 26.0449 91.3684 24.0259 90.1937ZM248.225 85.1279C244.646 78.9975 246.739 71.1418 252.869 67.5627C258.999 64.0019 266.873 66.076 270.434 72.2247C273.995 78.3551 271.921 86.2108 265.79 89.7899C263.753 90.9646 261.532 91.5336 259.33 91.5336C254.906 91.5336 250.611 89.2393 248.225 85.1279ZM67.6361 37.076C64.0753 30.9456 66.1494 23.0899 72.2981 19.5292C78.4285 15.95 86.2842 18.0424 89.8449 24.1728C93.424 30.3216 91.3316 38.1773 85.2013 41.738C83.1639 42.9311 80.943 43.4817 78.7589 43.4817C74.3171 43.4817 70.0221 41.1874 67.6361 37.076ZM204.45 41.5361C198.301 37.9937 196.191 30.138 199.733 23.9893C203.275 17.8405 211.131 15.7298 217.28 19.2722C223.428 22.8146 225.539 30.6703 221.997 36.819C219.629 40.9488 215.297 43.2614 210.856 43.2614C208.672 43.2614 206.469 42.7108 204.45 41.5361ZM131.932 12.8665C131.913 5.78169 137.658 0.0183983 144.743 4.3858e-05C151.846 -0.0183106 157.609 5.72663 157.609 12.8298C157.628 19.9146 151.883 25.6779 144.798 25.6962C144.78 25.6962 144.78 25.6962 144.78 25.6962C137.695 25.6962 131.932 19.9513 131.932 12.8665Z" fill="#15ABE6"/>
<path d="M132.226 218.436C132.226 211.333 137.97 205.57 145.055 205.57C152.158 205.551 157.922 211.296 157.922 218.399C157.94 225.503 152.177 231.247 145.092 231.266C137.989 231.266 132.244 225.521 132.226 218.436ZM84.1002 206.102C79.0711 201.091 79.0528 192.942 84.0635 187.931C89.0743 182.902 97.2053 182.884 102.234 187.894C107.264 192.905 107.282 201.036 102.271 206.065C99.7566 208.58 96.4528 209.846 93.1673 209.846C89.8819 209.846 86.5964 208.598 84.1002 206.102ZM187.858 205.973C182.847 200.963 182.829 192.832 187.858 187.803C192.869 182.792 201 182.792 206.029 187.803C211.039 192.813 211.039 200.944 206.029 205.973C203.514 208.47 200.229 209.736 196.943 209.736C193.658 209.736 190.372 208.488 187.858 205.973ZM58.7344 145.184C58.7161 138.08 64.461 132.317 71.5642 132.299C78.649 132.299 84.4123 138.025 84.4306 145.129C84.449 152.213 78.704 157.977 71.6009 157.995H71.5825C64.4977 157.995 58.7528 152.268 58.7344 145.184ZM205.57 145C205.57 144.908 205.57 144.835 205.57 144.743C205.533 137.658 211.26 131.877 218.363 131.84C225.466 131.822 231.229 137.548 231.266 144.651C231.266 144.706 231.266 144.78 231.266 144.853C231.266 144.908 231.266 144.945 231.266 145C231.266 152.103 225.503 157.848 218.418 157.848C211.315 157.848 205.57 152.103 205.57 145ZM83.8983 102.326C78.8509 97.3336 78.8325 89.1842 83.8433 84.1551C88.854 79.126 96.9851 79.1076 102.014 84.1184C107.043 89.1108 107.062 97.2418 102.051 102.289C99.5547 104.804 96.2509 106.07 92.9471 106.07C89.68 106.07 86.3945 104.822 83.8983 102.326ZM187.674 102.014C182.627 97.0216 182.608 88.8722 187.601 83.8431C192.612 78.814 200.743 78.7773 205.772 83.788C210.819 88.7804 210.838 96.9114 205.845 101.941C203.331 104.473 200.027 105.74 196.723 105.74C193.456 105.74 190.17 104.51 187.674 102.014ZM131.932 71.619C131.895 64.5159 137.64 58.7526 144.725 58.7342C151.828 58.7159 157.591 64.4424 157.61 71.5456C157.646 78.6304 151.901 84.4121 144.817 84.4304C144.798 84.4304 144.78 84.4304 144.78 84.4304C137.695 84.4304 131.95 78.7038 131.932 71.619Z" fill="#15ABE6"/>
</g>
<defs>
<clipPath id="clip0_2_65">
<rect width="290" height="290" fill="white"/>
</clipPath>
</defs>
</svg>
