<svg width="456" height="67" viewBox="0 0 456 67" fill="none" xmlns="http://www.w3.org/2000/svg">
<path d="M111.512 49.6785C111.178 49.6785 110.907 49.5768 110.687 49.3647C110.467 49.1569 110.369 48.9237 110.369 48.6269V17.756C110.369 17.4592 110.471 17.2217 110.687 17.0181C110.907 16.8061 111.178 16.7043 111.512 16.7043H120.81C126 16.7043 130.065 18.1334 132.893 20.9449C135.717 23.7605 137.152 27.8696 137.152 33.166C137.152 38.4624 135.721 42.5799 132.893 45.4126C130.069 48.241 126.004 49.6785 120.81 49.6785H111.512ZM112.469 47.9569H120.67C130.12 47.9569 134.908 42.9785 134.908 33.166C134.908 23.3831 130.115 18.4218 120.67 18.4218H112.469V47.9569Z" fill="white"/>
<path d="M159.493 49.6776C159.158 49.6776 158.887 49.5759 158.667 49.3638C158.447 49.1561 158.35 48.9228 158.35 48.626V17.7551C158.35 17.4583 158.451 17.2208 158.667 17.0173C158.887 16.8052 159.158 16.7035 159.493 16.7035H177.706C178.011 16.7035 178.236 16.7756 178.392 16.924C178.54 17.0639 178.612 17.2717 178.612 17.5643C178.612 17.8272 178.54 18.018 178.392 18.158C178.236 18.3064 178.011 18.3785 177.706 18.3785H160.399V32.0711H176.75C177.054 32.0711 177.279 32.1431 177.435 32.2916C177.584 32.4315 177.656 32.6393 177.656 32.9319C177.656 33.2245 177.584 33.4323 177.435 33.5722C177.279 33.7206 177.054 33.7927 176.75 33.7927H160.399V48.0111H177.706C178.011 48.0111 178.244 48.079 178.405 48.2189C178.456 48.2613 178.612 48.4012 178.612 48.8253C178.612 49.1179 178.54 49.3257 178.392 49.4656C178.236 49.614 178.011 49.6861 177.706 49.6861H159.493V49.6776Z" fill="white"/>
<path d="M228.702 49.915C228.389 49.915 228.168 49.8344 228.033 49.6648C227.876 49.474 227.796 49.1899 227.796 48.8125V22.1736L226.975 21.9743L215.615 43.9613C215.209 44.7416 214.739 44.8306 214.421 44.8306C214.104 44.8306 213.63 44.7416 213.228 43.9613L201.771 22.1651L200.95 22.3687V48.821C200.95 49.1941 200.869 49.4825 200.713 49.6733C200.573 49.8429 200.357 49.9235 200.044 49.9235C199.692 49.9235 199.447 49.8387 199.294 49.6606C199.129 49.474 199.044 49.1899 199.044 48.821V17.5684C199.044 17.2334 199.138 16.9705 199.332 16.7627C199.519 16.5634 199.785 16.4659 200.141 16.4659C200.289 16.4659 200.738 16.4659 201.191 17.3352L214.472 42.8546L227.559 17.3352C228.012 16.4659 228.461 16.4659 228.609 16.4659C228.964 16.4659 229.231 16.5634 229.417 16.7627C229.612 16.9705 229.705 17.2334 229.705 17.5684V48.821C229.705 49.1602 229.616 49.4273 229.43 49.6351C229.257 49.826 229.024 49.915 228.702 49.915Z" fill="white"/>
<path d="M278.982 49.915C278.813 49.915 278.648 49.8599 278.483 49.7497C278.309 49.6352 278.182 49.4783 278.089 49.2662L274.334 40.6538H255.168L251.361 49.2662C251.15 49.7157 250.858 49.9193 250.417 49.9193C250.142 49.9193 249.913 49.8387 249.723 49.6691C249.545 49.5122 249.46 49.3171 249.46 49.0585C249.46 48.8464 249.494 48.7574 249.511 48.7277L263.517 17.2165C263.745 16.661 264.105 16.4193 264.702 16.4193C264.973 16.4193 265.218 16.4914 265.451 16.6398C265.676 16.784 265.832 16.9663 265.926 17.1995L279.88 48.7065C279.956 48.8549 279.986 48.9821 279.986 49.1051C279.986 49.3256 279.897 49.5037 279.711 49.6564C279.499 49.8302 279.262 49.915 278.982 49.915ZM255.879 38.9321H273.559L264.744 18.8364L255.879 38.9321Z" fill="white"/>
<path d="M324.322 49.915C323.979 49.915 323.666 49.7327 323.37 49.3595L301.6 19.9389V48.8167C301.6 49.1559 301.511 49.4231 301.324 49.6309C301.151 49.8259 300.935 49.915 300.643 49.915C300.296 49.915 300.063 49.8344 299.923 49.6648C299.766 49.474 299.686 49.1899 299.686 48.8125V17.5599C299.686 17.2249 299.779 16.962 299.974 16.7542C300.16 16.5549 300.427 16.4574 300.783 16.4574C301.147 16.4574 301.426 16.6228 301.667 16.9832L323.412 46.3869V17.5642C323.412 17.2249 323.501 16.9578 323.683 16.75C323.857 16.5549 324.072 16.4659 324.365 16.4659C324.682 16.4659 324.915 16.5507 325.067 16.7246C325.237 16.9154 325.317 17.191 325.317 17.5642V48.8167C325.317 49.1559 325.228 49.4231 325.042 49.6309C324.877 49.8259 324.648 49.915 324.322 49.915Z" fill="white"/>
<path d="M349.005 49.6776C348.671 49.6776 348.4 49.5759 348.18 49.3638C347.96 49.1561 347.862 48.9228 347.862 48.626V17.7551C347.862 17.4583 347.964 17.2208 348.18 17.0173C348.4 16.8052 348.671 16.7035 349.005 16.7035H358.303C363.493 16.7035 367.558 18.1325 370.386 20.944C373.21 23.7597 374.645 27.8687 374.645 33.1651C374.645 38.4615 373.214 42.579 370.386 45.4117C367.562 48.2401 363.498 49.6776 358.303 49.6776H349.005ZM349.962 47.956H358.163C367.613 47.956 372.401 42.9776 372.401 33.1651C372.401 23.3823 367.609 18.4209 358.163 18.4209H349.962V47.956Z" fill="white"/>
<path d="M400.187 16.6741C399.285 16.6741 398.565 16.9454 398.019 17.484C397.477 18.0268 397.206 18.7434 397.206 19.6382V46.8368C397.206 47.7315 397.477 48.4566 398.019 49.0164C398.561 49.5719 399.285 49.8518 400.187 49.8518C401.118 49.8518 401.855 49.5719 402.397 49.0164C402.939 48.4609 403.21 47.7358 403.21 46.8368V19.6424C403.21 18.7477 402.939 18.0268 402.397 17.4882C401.855 16.9455 401.118 16.6741 400.187 16.6741Z" fill="#15ABE6"/>
<path d="M454.238 44.801C453.679 44.2625 452.951 43.9911 452.049 43.9911H450.064C450.474 43.4059 450.847 42.7825 451.186 42.1125C452.46 39.581 453.095 36.6126 453.095 33.216C453.095 29.8193 452.464 26.8595 451.207 24.3448C449.949 21.826 448.15 19.8881 445.805 18.5311C443.459 17.1741 440.69 16.4914 437.494 16.4914C434.297 16.4914 431.516 17.1699 429.157 18.5311C426.799 19.8923 424.991 21.8302 423.73 24.3448C422.472 26.8637 421.846 29.8193 421.846 33.216C421.846 36.6126 422.481 39.581 423.755 42.1125C425.029 44.6441 426.837 46.5905 429.179 47.9517C431.524 49.3129 434.293 49.9914 437.494 49.9914C437.769 49.9914 438.036 49.9787 438.307 49.9702H452.054C452.955 49.9702 453.684 49.6988 454.242 49.1603C454.801 48.6217 455.081 47.9008 455.081 47.0061C455.076 46.0732 454.797 45.3396 454.238 44.801ZM430.385 42.1125C428.692 40.0432 427.845 37.0791 427.845 33.216C427.845 29.3571 428.692 26.3972 430.385 24.3448C432.079 22.2924 434.445 21.262 437.489 21.262C440.5 21.262 442.854 22.2882 444.547 24.3448C446.241 26.4015 447.083 29.3571 447.083 33.216C447.083 37.0791 446.236 40.0432 444.547 42.1125C442.854 44.1819 440.504 45.2166 437.489 45.2166C434.445 45.2166 432.079 44.1819 430.385 42.1125Z" fill="#15ABE6"/>
<path d="M30.5 64.0317C30.5 62.3948 31.8251 61.0633 33.4636 61.0633C35.0978 61.0633 36.4272 62.3906 36.4272 64.0274C36.4272 65.6685 35.1021 67 33.4678 67C31.8294 67 30.5 65.6727 30.5 64.0317ZM16.7403 62.5263C15.322 61.7079 14.8393 59.8929 15.6564 58.4724C16.4735 57.0518 18.2856 56.5684 19.7039 57.3868C21.1222 58.2052 21.6091 60.0201 20.7877 61.4407C20.2416 62.3948 19.2467 62.9249 18.2221 62.9249C17.7183 62.9249 17.206 62.7977 16.7403 62.5263ZM46.1352 61.428C45.3139 60.0074 45.7965 58.1925 47.2148 57.3698C48.6289 56.5514 50.4452 57.0348 51.2665 58.4511C52.0837 59.8717 51.601 61.6867 50.1827 62.5093C49.717 62.7807 49.2047 62.9079 48.7009 62.9079C47.6805 62.9079 46.6856 62.3779 46.1352 61.428ZM4.49201 50.2797C3.67067 48.8634 4.15331 47.0484 5.57162 46.2258C6.9857 45.4031 8.79774 45.8865 9.62333 47.3029C10.4404 48.7192 9.95779 50.5384 8.54372 51.361C8.078 51.6324 7.56572 51.7596 7.0619 51.7596C6.03733 51.7596 5.0424 51.2296 4.49201 50.2797ZM58.3708 51.3313C56.9525 50.5129 56.4656 48.698 57.2869 47.2774C58.1083 45.8568 59.9203 45.3734 61.3344 46.1961C62.7527 47.0145 63.2396 48.8294 62.4183 50.25C61.8679 51.1999 60.8729 51.7299 59.8484 51.7299C59.3445 51.7299 58.8365 51.6027 58.3708 51.3313ZM0 33.5382C0 31.9013 1.32517 30.5698 2.95939 30.5656C4.59786 30.5656 5.92726 31.8929 5.92726 33.5339C5.92726 35.1708 4.60209 36.5023 2.96786 36.5023C1.3294 36.5065 0 35.1792 0 33.5382ZM60.9661 33.5C60.9661 33.4788 60.9661 33.4576 60.9661 33.4364C60.9618 31.7953 62.287 30.4638 63.9212 30.4596C65.5597 30.4596 66.8891 31.7826 66.8933 33.4237C66.8933 33.4364 66.8933 33.4491 66.8933 33.4661C66.8933 33.4746 66.8933 33.4873 66.8933 33.5C66.8933 35.1368 65.5682 36.4684 63.9297 36.4684C62.2955 36.4684 60.9661 35.1411 60.9661 33.5ZM5.54199 20.8379C4.12368 20.0194 3.6368 18.2045 4.45391 16.7839C5.27526 15.3634 7.08731 14.8757 8.50561 15.6941C9.91969 16.5168 10.4066 18.3317 9.58946 19.748C9.03907 20.7022 8.04414 21.2365 7.01957 21.2365C6.51575 21.2365 6.0077 21.1092 5.54199 20.8379ZM57.2573 19.6675C56.4317 18.2511 56.9144 16.4362 58.3284 15.6093C59.7425 14.7867 61.5588 15.2658 62.3801 16.6864C63.2015 18.1027 62.7231 19.9177 61.309 20.7446C60.8391 21.016 60.3268 21.1474 59.8187 21.1474C58.7984 21.1474 57.8077 20.6173 57.2573 19.6675ZM15.6014 8.56583C14.78 7.1495 15.2585 5.33457 16.6768 4.51191C18.0908 3.68501 19.9029 4.16843 20.7242 5.58476C21.5498 7.00533 21.0672 8.82026 19.6531 9.64292C19.1831 9.91855 18.6709 10.0458 18.167 10.0458C17.1425 10.0458 16.1518 9.51571 15.6014 8.56583ZM47.1598 9.59628C45.7415 8.77786 45.2546 6.96292 46.0717 5.54235C46.8888 4.12178 48.7009 3.63412 50.1192 4.45254C51.5375 5.27096 52.0244 7.0859 51.2073 8.50646C50.6611 9.46058 49.6619 9.99488 48.6374 9.99488C48.1336 9.99488 47.6255 9.86767 47.1598 9.59628ZM30.4322 2.9726C30.428 1.33577 31.7532 0.00425064 33.3874 1.01327e-05C35.0259 -0.00423037 36.3553 1.32305 36.3553 2.96412C36.3595 4.60096 35.0343 5.93248 33.4001 5.93672C33.3959 5.93672 33.3959 5.93672 33.3959 5.93672C31.7616 5.93672 30.4322 4.60944 30.4322 2.9726Z" fill="white"/>
<path d="M30.5013 50.4663C30.5013 48.8252 31.8264 47.4937 33.4607 47.4937C35.0991 47.4894 36.4285 48.8167 36.4285 50.4578C36.4328 52.0989 35.1034 53.4262 33.4691 53.4304C31.8307 53.4304 30.5055 52.1031 30.5013 50.4663ZM19.4004 47.6167C18.2403 46.459 18.2361 44.5762 19.3919 43.4186C20.5477 42.2567 22.4233 42.2524 23.5833 43.4101C24.7434 44.5677 24.7476 46.4463 23.5918 47.6082C23.0118 48.1891 22.2497 48.4817 21.4919 48.4817C20.734 48.4817 19.9762 48.1934 19.4004 47.6167ZM43.3338 47.587C42.178 46.4293 42.1737 44.5508 43.3338 43.3889C44.4896 42.2312 46.3652 42.2312 47.5252 43.3889C48.681 44.5465 48.681 46.4251 47.5252 47.587C46.9452 48.1637 46.1873 48.4563 45.4295 48.4563C44.6717 48.4563 43.9138 48.1679 43.3338 47.587ZM13.5493 33.5424C13.5451 31.9013 14.8703 30.5698 16.5087 30.5656C18.143 30.5656 19.4724 31.8886 19.4766 33.5297C19.4808 35.1665 18.1557 36.4981 16.5172 36.5023H16.513C14.8787 36.5023 13.5536 35.1793 13.5493 33.5424ZM47.4194 33.5C47.4194 33.4788 47.4194 33.4619 47.4194 33.4407C47.4109 31.8038 48.7318 30.4681 50.3703 30.4596C52.0088 30.4553 53.3382 31.7784 53.3466 33.4194C53.3466 33.4322 53.3466 33.4491 53.3466 33.4661C53.3466 33.4788 53.3466 33.4873 53.3466 33.5C53.3466 35.1411 52.0172 36.4684 50.383 36.4684C48.7445 36.4684 47.4194 35.1411 47.4194 33.5ZM19.3538 23.6408C18.1895 22.4874 18.1853 20.6046 19.3411 19.4427C20.4969 18.2808 22.3725 18.2766 23.5325 19.4343C24.6926 20.5877 24.6968 22.4662 23.541 23.6324C22.9652 24.2133 22.2031 24.5059 21.441 24.5059C20.6874 24.5059 19.9296 24.2176 19.3538 23.6408ZM43.2915 23.5688C42.1272 22.4153 42.1229 20.5326 43.2745 19.3707C44.4303 18.2088 46.3059 18.2003 47.4659 19.3579C48.6302 20.5114 48.6345 22.3899 47.4829 23.5518C46.9029 24.137 46.1408 24.4296 45.3787 24.4296C44.6251 24.4296 43.8672 24.1455 43.2915 23.5688ZM30.4335 16.5465C30.4251 14.9054 31.7502 13.5739 33.3845 13.5696C35.0229 13.5654 36.3523 14.8884 36.3566 16.5295C36.365 18.1664 35.0399 19.5021 33.4056 19.5064C33.4014 19.5064 33.3972 19.5064 33.3972 19.5064C31.7629 19.5064 30.4378 18.1833 30.4335 16.5465Z" fill="white"/>
</svg>
